# xmcd
#
# Track frame offsets:
#	150
#	16339
#	34183
#	51723
#	67175
#	78068
#	92733
#	106559
#	125911
#	143722
#	157431
#	174394
#	191507
#	206344
#	224995
#	241536
#	257362
#	273891
#	287730
#	305563
#	320201
#
# Disc length: 4479 seconds
#
# Revision: 1
# Processed by: cddbd v1.5.2PL0 Copyright (c) Steve Scherf et al.
# Submitted via: audiograbber 1.83.01
#
DISCID=3b117d15
DTITLE=Promo Only Canada - Country Radio Aprill 1999
DYEAR=1999
DGENRE=Country
TTITLE0=George Strait - Write This Down
TTITLE1=Shania Twain - Man I Feel Like A Woman
TTITLE2=Reba McEtire - One Honest Heart
TTITLE3=Dixie Chicks - Tonight The Heartaches On Me
TTITLE4=John Michael Montgomery - Hello Love
TTITLE5=Linda Davis - From The Inside Out
TTITLE6=Sara Evans - Fool Im A Woman
TTITLE7=George Fox - How Do I Get There From Her
TTITLE8=Lonestar - Amazed
TTITLE9=Wilkinsons The - Boy Oh Boy
TTITLE10=Travis Tritt - Start The Car
TTITLE11=Lari White - John Wayne Walking Away
TTITLE12=Chely Wright - Single White Female
TTITLE13=Deana Carter - Angels Working Overtime
TTITLE14=Mary Chapin Carpenter - Almost Home
TTITLE15=Julie Reeves - Its About Time
TTITLE16=Allison Moorer - Pardon Me
TTITLE17=Shane Minor - Slave To The Habit
TTITLE18=Michael Peterson - Somethin Bout A Sunday
TTITLE19=Randy Travis - Stranger In My Mirror
TTITLE20=Joe Diffie - A Night To Remember
EXTD=
EXTT0=
EXTT1=
EXTT2=
EXTT3=
EXTT4=
EXTT5=
EXTT6=
EXTT7=
EXTT8=
EXTT9=
EXTT10=
EXTT11=
EXTT12=
EXTT13=
EXTT14=
EXTT15=
EXTT16=
EXTT17=
EXTT18=
EXTT19=
EXTT20=
PLAYORDER=
